<svg xmlns="http://www.w3.org/2000/svg" height="512" viewBox="0 0 128 128" width="512"><g id="Solid"><path d="m18.647 36.189c-4.478-7.05-10.571-7.529-14.662-5.34a3.328 3.328 0 0 0 -.751.46 3.322 3.322 0 0 0 -.734 4.076l7.98 15.079a3.148 3.148 0 0 0 3.345 1.625 3.11 3.11 0 0 0 1.2-.487c4.086-2.189 8.075-8.402 3.622-15.413z"></path><path d="m123.331 97.938c-3.062-3.344-17.9-14.383-24.036-18.646a19.437 19.437 0 0 0 -2.815-1.655c6.1-5.739 14.167-15.949 14.167-29.812a39.012 39.012 0 0 0 -12.63-29.132 43.747 43.747 0 0 0 -33.006-11.078l-1.911-3.678a3.208 3.208 0 0 0 -1.884-1.589 3.246 3.246 0 0 0 -3.032.6 3.322 3.322 0 0 0 -.734 4.076l7.984 15.076a3.146 3.146 0 0 0 3.344 1.625 3.148 3.148 0 0 0 2.233-4.547l-2.956-5.7a37.575 37.575 0 0 1 25.907 9.633 32.62 32.62 0 0 1 10.685 24.71c0 14.441-10.607 24.413-15.608 28.308-.108-.006-.2-.014-.312-.02-1.514-.084-3.593-.214-5.971-.368v-11.741h4.344a3.063 3.063 0 1 0 0-6.125h-32.871a3.063 3.063 0 0 0 0 6.125h17.138v10.979c-7.874-.541-15.078-1.056-15.078-1.056a5.476 5.476 0 0 1 -3.307-1.3c-4.27-3.623-18.365-16.584-23.766-18.737-6.1-2.432-11.461 2.134-13.582 4.394a4.922 4.922 0 0 0 -.766 1.017 3.28 3.28 0 0 0 1.037 3.954l30.268 22.987a14.98 14.98 0 0 0 7.96 3.021c2.993.23 7.191.528 11.7.839v27.4h-25.949a9.182 9.182 0 0 0 -8.526 5.773 1.259 1.259 0 0 0 1.169 1.729h59.113a1.259 1.259 0 0 0 1.169-1.727 9.183 9.183 0 0 0 -8.527-5.773h-1.491v-26.262l5.2.343a10.481 10.481 0 0 1 5.719 2.164l23.51 18.158a3.18 3.18 0 0 0 4.463-.565 7.468 7.468 0 0 0 .844-1.424c1.843-3.724 5.148-7.234.804-11.976z"></path></g></svg>