<svg xmlns="http://www.w3.org/2000/svg" height="512" viewBox="0 0 128 128" width="512"><g id="Solid"><path d="m92.889 38.055c-6.34-10.88-21.34-11.34-31.27-6.47a16.247 16.247 0 0 1 -3.891 1.335 2 2 0 0 0 -.5 3.779 2.816 2.816 0 0 0 .435.146 1.592 1.592 0 0 1 1.363 1.514 1.5 1.5 0 0 1 -1.5 1.476h-.15c-3.11-.31-4.576-2.372-6-4.37a11.157 11.157 0 0 0 -4.13-3.88c-9.815-5.116-24.94-4.41-31.28 6.47-8.31 14.27 0 35.02 8.25 49.68s5.37 39.73 17.09 37.76c8.56-1.45 3.97-41.43 13.12-41.43s4.57 39.98 13.13 41.43c11.72 1.97 8.85-23.11 17.09-37.76s16.563-35.41 8.243-49.68zm-8.322 8.756-2.448 1.339a5.531 5.531 0 0 0 -2.2 2.2l-1.339 2.45a.714.714 0 0 1 -1.253 0l-1.339-2.45a5.535 5.535 0 0 0 -2.2-2.2l-2.448-1.339a.714.714 0 0 1 0-1.253l2.448-1.339a5.535 5.535 0 0 0 2.2-2.2l1.339-2.448a.714.714 0 0 1 1.253 0l1.339 2.448a5.531 5.531 0 0 0 2.2 2.2l2.448 1.339a.714.714 0 0 1 0 1.253z"></path><path d="m93.99 2.787-1.906 3.485a7.88 7.88 0 0 1 -3.131 3.128l-3.486 1.906a1.018 1.018 0 0 0 0 1.785l3.486 1.909a7.886 7.886 0 0 1 3.131 3.131l1.906 3.485a1.017 1.017 0 0 0 1.785 0l1.906-3.485a7.88 7.88 0 0 1 3.131-3.131l3.485-1.906a1.017 1.017 0 0 0 0-1.785l-3.485-1.909a7.874 7.874 0 0 1 -3.131-3.131l-1.906-3.482a1.017 1.017 0 0 0 -1.785 0z"></path><path d="m110.606 33.619-1.339 2.448a5.532 5.532 0 0 1 -2.2 2.2l-2.447 1.333a.714.714 0 0 0 0 1.254l2.448 1.339a5.526 5.526 0 0 1 2.2 2.2l1.339 2.448a.715.715 0 0 0 1.254 0l1.339-2.441a5.532 5.532 0 0 1 2.2-2.2l2.448-1.339a.714.714 0 0 0 0-1.254l-2.448-1.341a5.539 5.539 0 0 1 -2.2-2.2l-1.339-2.448a.714.714 0 0 0 -1.255.001z"></path></g></svg>