<svg id="Layer_1" data-name="Layer 1" xmlns="http://www.w3.org/2000/svg" viewBox="0 0 639.12 182.35"><defs><style>.cls-1{fill:#997656;}.cls-2{fill:#3f160c;}.cls-3{font-size:96.11px;fill:#111;font-family:Marcellus-Regular, Marcellus;}.cls-4{font-size:26px;fill:#666;font-family:Inter-Regular, Inter;}.cls-5{letter-spacing:-0.02em;}.cls-6{letter-spacing:-0.02em;}.cls-7{letter-spacing:0em;}.cls-8{letter-spacing:0.01em;}.cls-9{letter-spacing:-0.02em;}.cls-10{letter-spacing:-0.01em;}</style></defs><path class="cls-1" d="M601.54,473.42v17.11h26.38V558a67.43,67.43,0,1,1-134.85,0V490.53h26.38V473.42H476V558a84.53,84.53,0,0,0,169,0V473.42Z" transform="translate(-475.97 -473.42)"/><path class="cls-2" d="M549.64,586.05c0,.52,0,1,0,1.55h21c0-.51,0-1,0-1.55,0-13.73,11.44-24.89,25.5-24.89V540.22C570.44,540.22,549.64,560.74,549.64,586.05Z" transform="translate(-475.97 -473.42)"/><path class="cls-2" d="M571.21,519.1c0-.52,0-1,0-1.54l-21,.11c0,.51.06,1,.06,1.55.08,13.72-11.31,24.95-25.37,25l.12,20.93C550.66,565,571.34,544.41,571.21,519.1Z" transform="translate(-475.97 -473.42)"/><text class="cls-3" transform="translate(195.95 99.51)">Medicross</text><text class="cls-4" transform="translate(201.51 142.84)">Comp<tspan class="cls-5" x="72.87" y="0">r</tspan><tspan x="82.1" y="0">ehensi</tspan><tspan class="cls-6" x="162.72" y="0">v</tspan><tspan class="cls-7" x="176.68" y="0">e Heal</tspan><tspan class="cls-8" x="254.35" y="0">t</tspan><tspan x="264.1" y="0">h Ca</tspan><tspan class="cls-9" x="320.34" y="0">r</tspan><tspan x="329.58" y="0">e Cen</tspan><tspan class="cls-10" x="401.3" y="0">t</tspan><tspan class="cls-7" x="410.6" y="0">er</tspan></text></svg>