<?xml version="1.0" encoding="UTF-8"?>
<svg xmlns="http://www.w3.org/2000/svg" width="52" height="49" viewBox="0 0 52 49" fill="none">
  <path d="M12.7262 49C11.0364 49 9.59935 48.418 8.41515 47.254C7.23058 46.0899 6.6383 44.6766 6.6383 43.0138C6.6383 41.3507 7.23003 39.9365 8.41349 38.771C9.59658 37.6051 11.0334 37.0222 12.724 37.0222C13.1975 37.0222 13.6625 37.0801 14.1191 37.1959C14.576 37.312 15.0073 37.4678 15.413 37.663L19.7998 32.2899C18.8808 31.3041 18.2468 30.2012 17.898 28.9813C17.5491 27.761 17.4781 26.5339 17.685 25.2998L11.3106 23.2227C10.7544 24.1022 10.0233 24.8071 9.11715 25.3374C8.21102 25.868 7.20034 26.1333 6.08511 26.1333C4.39492 26.1333 2.9581 25.5513 1.77464 24.3873C0.591546 23.2233 0 21.8099 0 20.1472C0 18.4841 0.591362 17.0698 1.77409 15.9043C2.95681 14.7385 4.39289 14.1556 6.08234 14.1556C7.77216 14.1556 9.20916 14.7377 10.3934 15.9021C11.5779 17.0669 12.1702 18.481 12.1702 20.1444C12.1702 20.2729 12.1667 20.3804 12.1597 20.4668C12.1523 20.5535 12.1486 20.6401 12.1486 20.7265L18.502 22.9004C19.112 21.789 19.9497 20.8355 21.0152 20.0399C22.0803 19.2443 23.3021 18.7334 24.6806 18.5073V11.8226C23.2567 11.4934 22.1065 10.7849 21.2298 9.6971C20.3532 8.60966 19.9149 7.37069 19.9149 5.98018C19.9149 4.32471 20.5063 2.91423 21.689 1.74876C22.8717 0.582918 24.3078 0 25.9972 0C27.6871 0 29.1241 0.582193 30.3083 1.74658C31.4928 2.91133 32.0851 4.32543 32.0851 5.98889C32.0851 7.37359 31.6411 8.60966 30.753 9.6971C29.8653 10.7849 28.7208 11.4934 27.3194 11.8226V18.5073C28.6979 18.7334 29.9162 19.2443 30.9743 20.0399C32.0324 20.8355 32.8736 21.789 33.498 22.9004L39.8514 20.7265C39.837 20.6259 39.8298 20.5359 39.8298 20.4564V20.1444C39.8298 18.481 40.4212 17.0669 41.6039 15.9021C42.7866 14.7377 44.2227 14.1556 45.9121 14.1556C47.6019 14.1556 49.039 14.7376 50.2231 15.9016C51.4077 17.0656 52 18.479 52 20.1417C52 21.8048 51.4085 23.2191 50.2254 24.3846C49.0419 25.5504 47.6051 26.1333 45.9149 26.1333C44.8041 26.1333 43.7888 25.868 42.869 25.3374C41.9492 24.8071 41.2227 24.1022 40.6894 23.2227L34.315 25.2998C34.5219 26.5339 34.4509 27.7554 34.102 28.9644C33.7532 30.1735 33.1192 31.2749 32.2002 32.2687L36.587 37.6086C36.9927 37.4271 37.424 37.2841 37.8809 37.1796C38.3375 37.0747 38.8025 37.0222 39.276 37.0222C40.9666 37.0222 42.4034 37.6042 43.5865 38.7683C44.77 39.9323 45.3617 41.3457 45.3617 43.0084C45.3617 44.6715 44.7703 46.0858 43.5876 47.2512C42.4049 48.4171 40.9688 49 39.2794 49C37.5895 49 36.1525 48.4178 34.9683 47.2534C33.7838 46.0887 33.1915 44.6746 33.1915 43.0111C33.1915 42.3244 33.3043 41.6634 33.53 41.0282C33.7554 40.3931 34.0923 39.8101 34.5407 39.2795L30.1534 33.8644C28.8965 34.6016 27.5098 34.9702 25.9934 34.9702C24.4772 34.9702 23.0838 34.6016 21.8129 33.8644L17.4593 39.2795C17.8933 39.8101 18.2267 40.3931 18.4594 41.0282C18.6922 41.6634 18.8085 42.3244 18.8085 43.0111C18.8085 44.6746 18.2171 46.0887 17.0344 47.2534C15.8517 48.4178 14.4156 49 12.7262 49ZM6.08511 22.8667C6.85404 22.8667 7.50718 22.6021 8.04451 22.0729C8.58221 21.544 8.85106 20.9012 8.85106 20.1444C8.85106 19.3877 8.58221 18.7449 8.04451 18.216C7.50718 17.6868 6.85404 17.4222 6.08511 17.4222C5.31617 17.4222 4.66304 17.6868 4.1257 18.216C3.588 18.7449 3.31915 19.3877 3.31915 20.1444C3.31915 20.9012 3.588 21.544 4.1257 22.0729C4.66304 22.6021 5.31617 22.8667 6.08511 22.8667ZM12.7234 45.7333C13.4923 45.7333 14.1455 45.4687 14.6828 44.9395C15.2205 44.4107 15.4894 43.7679 15.4894 43.0111C15.4894 42.2543 15.2205 41.6115 14.6828 41.0827C14.1455 40.5535 13.4923 40.2889 12.7234 40.2889C11.9545 40.2889 11.3013 40.5535 10.764 41.0827C10.2263 41.6115 9.95745 42.2543 9.95745 43.0111C9.95745 43.7679 10.2263 44.4107 10.764 44.9395C11.3013 45.4687 11.9545 45.7333 12.7234 45.7333ZM26 8.71111C26.7689 8.71111 27.4221 8.44651 27.9594 7.91731C28.4971 7.38847 28.766 6.74567 28.766 5.98889C28.766 5.23211 28.4971 4.5893 27.9594 4.06047C27.4221 3.53127 26.7689 3.26667 26 3.26667C25.2311 3.26667 24.5779 3.53127 24.0406 4.06047C23.5029 4.5893 23.234 5.23211 23.234 5.98889C23.234 6.74567 23.5029 7.38847 24.0406 7.91731C24.5779 8.44651 25.2311 8.71111 26 8.71111ZM26 31.7035C27.4213 31.7035 28.6277 31.2155 29.619 30.2395C30.6107 29.2639 31.1065 28.0766 31.1065 26.6778C31.1065 25.2789 30.6107 24.0917 29.619 23.116C28.6277 22.14 27.4213 21.652 26 21.652C24.5787 21.652 23.3723 22.14 22.381 23.116C21.3893 24.0917 20.8935 25.2789 20.8935 26.6778C20.8935 28.0766 21.3893 29.2639 22.381 30.2395C23.3723 31.2155 24.5787 31.7035 26 31.7035ZM39.2766 45.7333C40.0455 45.7333 40.6987 45.4687 41.236 44.9395C41.7737 44.4107 42.0426 43.7679 42.0426 43.0111C42.0426 42.2543 41.7737 41.6115 41.236 41.0827C40.6987 40.5535 40.0455 40.2889 39.2766 40.2889C38.5077 40.2889 37.8545 40.5535 37.3172 41.0827C36.7795 41.6115 36.5106 42.2543 36.5106 43.0111C36.5106 43.7679 36.7795 44.4107 37.3172 44.9395C37.8545 45.4687 38.5077 45.7333 39.2766 45.7333ZM45.9149 22.8667C46.6838 22.8667 47.337 22.6021 47.8743 22.0729C48.412 21.544 48.6809 20.9012 48.6809 20.1444C48.6809 19.3877 48.412 18.7449 47.8743 18.216C47.337 17.6868 46.6838 17.4222 45.9149 17.4222C45.146 17.4222 44.4928 17.6868 43.9555 18.216C43.4178 18.7449 43.1489 19.3877 43.1489 20.1444C43.1489 20.9012 43.4178 21.544 43.9555 22.0729C44.4928 22.6021 45.146 22.8667 45.9149 22.8667Z" fill="white"></path>
</svg>
