<?xml version="1.0" encoding="UTF-8"?>
<svg xmlns="http://www.w3.org/2000/svg" width="35" height="35" viewBox="0 0 35 35" fill="none">
  <mask id="path-1-outside-1_422_5513" maskUnits="userSpaceOnUse" x="0" y="0" width="35" height="35" fill="black">
    <rect fill="white" width="35" height="35"></rect>
    <path fill-rule="evenodd" clip-rule="evenodd" d="M24.3717 2.47222L25.8439 1L29.1858 4.34194L32.5278 1L34 2.47222L30.6581 5.81416L34 9.1561L32.5278 10.6283L29.1858 7.28638L26.5821 9.89016C28.8028 12.4487 30.1485 15.7862 30.1485 19.4324C30.1485 27.469 23.6109 34.0066 15.5742 34.0066C7.53759 34.0066 1 27.469 1 19.4324C1 11.3957 7.53759 4.85811 15.5742 4.85811C19.217 4.85811 22.5518 6.20128 25.1094 8.4184L27.7136 5.81416L24.3717 2.47222ZM15.5742 6.94015C8.68271 6.94015 3.08203 12.5408 3.08203 19.4324C3.08203 26.3239 8.68271 31.9246 15.5742 31.9246C22.4658 31.9246 28.0665 26.3239 28.0665 19.4324C28.0665 12.5408 22.4658 6.94015 15.5742 6.94015Z"></path>
  </mask>
  <path fill-rule="evenodd" clip-rule="evenodd" d="M24.3717 2.47222L25.8439 1L29.1858 4.34194L32.5278 1L34 2.47222L30.6581 5.81416L34 9.1561L32.5278 10.6283L29.1858 7.28638L26.5821 9.89016C28.8028 12.4487 30.1485 15.7862 30.1485 19.4324C30.1485 27.469 23.6109 34.0066 15.5742 34.0066C7.53759 34.0066 1 27.469 1 19.4324C1 11.3957 7.53759 4.85811 15.5742 4.85811C19.217 4.85811 22.5518 6.20128 25.1094 8.4184L27.7136 5.81416L24.3717 2.47222ZM15.5742 6.94015C8.68271 6.94015 3.08203 12.5408 3.08203 19.4324C3.08203 26.3239 8.68271 31.9246 15.5742 31.9246C22.4658 31.9246 28.0665 26.3239 28.0665 19.4324C28.0665 12.5408 22.4658 6.94015 15.5742 6.94015Z" fill="white"></path>
  <path d="M25.8439 1L25.9853 0.858579L25.8439 0.717157L25.7025 0.858579L25.8439 1ZM24.3717 2.47222L24.2303 2.3308L24.0888 2.47222L24.2303 2.61364L24.3717 2.47222ZM29.1858 4.34194L29.0444 4.48336L29.1858 4.62478L29.3273 4.48336L29.1858 4.34194ZM32.5278 1L32.6692 0.858579L32.5278 0.717158L32.3864 0.858579L32.5278 1ZM34 2.47222L34.1414 2.61364L34.2828 2.47222L34.1414 2.3308L34 2.47222ZM30.6581 5.81416L30.5166 5.67274L30.3752 5.81416L30.5166 5.95558L30.6581 5.81416ZM34 9.1561L34.1414 9.29752L34.2828 9.1561L34.1414 9.01468L34 9.1561ZM32.5278 10.6283L32.3864 10.7697L32.5278 10.9112L32.6692 10.7697L32.5278 10.6283ZM29.1858 7.28638L29.3273 7.14496L29.1858 7.00354L29.0444 7.14496L29.1858 7.28638ZM26.5821 9.89016L26.4406 9.74874L26.3089 9.88052L26.431 10.0213L26.5821 9.89016ZM25.1094 8.4184L24.9784 8.56953L25.1191 8.69152L25.2508 8.55983L25.1094 8.4184ZM27.7136 5.81416L27.855 5.95558L27.9965 5.81416L27.855 5.67274L27.7136 5.81416ZM25.7025 0.858579L24.2303 2.3308L24.5131 2.61364L25.9853 1.14142L25.7025 0.858579ZM29.3273 4.20052L25.9853 0.858579L25.7025 1.14142L29.0444 4.48336L29.3273 4.20052ZM29.3273 4.48336L32.6692 1.14142L32.3864 0.858579L29.0444 4.20052L29.3273 4.48336ZM32.3864 1.14142L33.8586 2.61364L34.1414 2.3308L32.6692 0.858579L32.3864 1.14142ZM33.8586 2.3308L30.5166 5.67274L30.7995 5.95558L34.1414 2.61364L33.8586 2.3308ZM34.1414 9.01468L30.7995 5.67274L30.5166 5.95558L33.8586 9.29752L34.1414 9.01468ZM32.6692 10.7697L34.1414 9.29752L33.8586 9.01468L32.3864 10.4869L32.6692 10.7697ZM29.0444 7.4278L32.3864 10.7697L32.6692 10.4869L29.3273 7.14496L29.0444 7.4278ZM29.0444 7.14496L26.4406 9.74874L26.7235 10.0316L29.3273 7.4278L29.0444 7.14496ZM26.431 10.0213C28.6215 12.5449 29.9485 15.8364 29.9485 19.4324H30.3485C30.3485 15.7361 28.9841 12.3524 26.7331 9.75906L26.431 10.0213ZM29.9485 19.4324C29.9485 27.3585 23.5004 33.8066 15.5742 33.8066V34.2066C23.7214 34.2066 30.3485 27.5795 30.3485 19.4324H29.9485ZM15.5742 33.8066C7.64805 33.8066 1.2 27.3585 1.2 19.4324H0.8C0.8 27.5795 7.42713 34.2066 15.5742 34.2066V33.8066ZM1.2 19.4324C1.2 11.5062 7.64805 5.05811 15.5742 5.05811V4.65811C7.42713 4.65811 0.8 11.2852 0.8 19.4324H1.2ZM15.5742 5.05811C19.1669 5.05811 22.4557 6.38263 24.9784 8.56953L25.2404 8.26728C22.6479 6.01994 19.2671 4.65811 15.5742 4.65811V5.05811ZM25.2508 8.55983L27.855 5.95558L27.5722 5.67274L24.968 8.27698L25.2508 8.55983ZM24.2303 2.61364L27.5722 5.95558L27.855 5.67274L24.5131 2.3308L24.2303 2.61364ZM3.28203 19.4324C3.28203 12.6513 8.79316 7.14014 15.5742 7.14014V6.74015C8.57225 6.74015 2.88203 12.4304 2.88203 19.4324H3.28203ZM15.5742 31.7246C8.79316 31.7246 3.28203 26.2134 3.28203 19.4324H2.88203C2.88203 26.4343 8.57225 32.1246 15.5742 32.1246V31.7246ZM27.8664 19.4324C27.8664 26.2134 22.3553 31.7246 15.5742 31.7246V32.1246C22.5762 32.1246 28.2665 26.4343 28.2665 19.4324H27.8664ZM15.5742 7.14014C22.3553 7.14014 27.8664 12.6513 27.8664 19.4324H28.2665C28.2665 12.4304 22.5762 6.74015 15.5742 6.74015V7.14014Z" fill="white" mask="url(#path-1-outside-1_422_5513)"></path>
</svg>
