<?xml version="1.0" encoding="UTF-8"?>
<svg xmlns="http://www.w3.org/2000/svg" width="41" height="25" viewBox="0 0 41 25" fill="none">
  <g clip-path="url(#clip0_422_5558)">
    <path d="M20.5065 25C12.0816 25 4.22534 20.4581 0 13.147V11.853C4.22534 4.54192 12.0816 0 20.5065 0C28.9313 0 36.7747 4.54192 41.0129 11.853V13.147C36.7876 20.4581 28.9313 25 20.5065 25ZM2.62307 12.5C6.47368 18.6335 13.2446 22.412 20.4935 22.412C27.7425 22.412 34.5263 18.6335 38.364 12.5C34.5134 6.36646 27.7425 2.58799 20.4935 2.58799C13.2446 2.58799 6.47368 6.36646 2.62307 12.5Z" fill="white"></path>
    <path d="M20.5064 24.793C13.7355 24.793 8.23096 19.2805 8.23096 12.5C8.23096 5.71945 13.7355 0.207031 20.5064 0.207031C27.2773 0.207031 32.7819 5.71945 32.7819 12.5C32.7819 19.2805 27.2773 24.793 20.5064 24.793ZM20.5064 2.79502C15.1569 2.79502 10.8153 7.14285 10.8153 12.5C10.8153 17.8571 15.1569 22.205 20.5064 22.205C25.8559 22.205 30.1976 17.8571 30.1976 12.5C30.1976 7.14285 25.8559 2.79502 20.5064 2.79502Z" fill="white"></path>
  </g>
  <defs>
    <clipPath id="clip0_422_5558">
      <rect width="41" height="25" fill="white"></rect>
    </clipPath>
  </defs>
</svg>
