<?xml version="1.0" encoding="UTF-8"?>
<svg xmlns="http://www.w3.org/2000/svg" width="44" height="43" viewBox="0 0 44 43" fill="none">
  <g clip-path="url(#clip0_422_5270)">
    <path d="M33.9481 38.9598L30.6578 35.7165C30.2954 35.3592 30.1559 35.3043 30.142 35.3043C30.1559 35.3043 29.9886 35.3592 29.8632 35.3867C29.417 35.4967 28.7339 35.6478 27.7301 35.6066C25.6667 35.5104 23.7288 34.6584 22.2649 33.2154L7.52856 18.6622L19.3093 7.03613L34.0736 21.5893C35.5514 23.046 36.4158 24.97 36.4994 27.0176C36.5412 27.9933 36.3739 28.6667 36.2763 29.1202C36.2485 29.2439 36.2066 29.395 36.2066 29.4637C36.2066 29.4637 36.3042 29.6149 36.6249 29.931L39.8733 33.133L33.962 38.9598H33.9481ZM30.2535 32.5695C31.0203 32.5695 31.7174 32.8719 32.6376 33.7789L33.962 35.0844L35.9278 33.1467L34.6591 31.8824C33.2371 30.4807 33.3207 29.5462 33.5717 28.488C33.6553 28.1307 33.7529 27.7459 33.725 27.155C33.6693 25.7945 33.0837 24.5027 32.1078 23.5408L19.3093 10.9252L11.4601 18.6622L24.2586 31.2777C25.2345 32.2397 26.5172 32.8032 27.8834 32.8581C28.4829 32.8856 28.8315 32.8032 29.2218 32.707C29.5983 32.6245 29.9329 32.5695 30.2535 32.5695Z" fill="white"></path>
    <path d="M22.2461 4.1451L4.58008 21.5586L6.55173 23.5021L24.2177 6.08857L22.2461 4.1451Z" fill="white"></path>
    <path d="M36.9292 34.0858L34.9575 36.0293L42.0259 42.9966L43.9976 41.0532L36.9292 34.0858Z" fill="white"></path>
    <path d="M5.88075 0.00831153L-0.00463867 5.80957L1.96702 7.75304L7.8524 1.95178L5.88075 0.00831153Z" fill="white"></path>
    <path d="M4.90525 2.8993L2.93359 4.84277L13.1566 14.9197L15.1283 12.9762L4.90525 2.8993Z" fill="white"></path>
  </g>
  <defs>
    <clipPath id="clip0_422_5270">
      <rect width="44" height="43" fill="white"></rect>
    </clipPath>
  </defs>
</svg>
