<?xml version="1.0" encoding="UTF-8"?>
<svg xmlns="http://www.w3.org/2000/svg" width="29" height="49" viewBox="0 0 29 49" fill="none">
  <g clip-path="url(#clip0_420_4749)">
    <path d="M7.63294 21.7196V9.1875H6.10487C4.42141 9.1875 3.05244 7.81402 3.05244 6.125C3.05244 4.43598 4.42141 3.0625 6.10857 3.0625C6.92256 3.0625 7.68844 3.38174 8.26563 3.96083L10.4264 1.79667C9.27201 0.638485 7.73654 0 6.10487 0C2.73794 0 0 2.74697 0 6.125C0 8.9722 1.94986 11.3739 4.58051 12.057V21.7196C2.80824 22.3544 1.52807 24.036 1.52807 26.0294V44.4044C1.52807 46.9361 3.58153 49 6.10857 49C8.63562 49 10.6891 46.9398 10.6891 44.4044V26.0294C10.6891 24.036 9.40891 22.3507 7.63664 21.7159L7.63294 21.7196ZM7.63294 44.4081C7.63294 45.2545 6.94846 45.9375 6.10857 45.9375C5.26869 45.9375 4.58421 45.2508 4.58421 44.4081V26.0331C4.58421 25.1867 5.26869 24.5037 6.10857 24.5037C6.94846 24.5037 7.63294 25.1905 7.63294 26.0331V44.4081Z" fill="white"></path>
    <path d="M24.4195 21.7159V12.031C27.0465 11.348 29 8.96848 29 6.125C29 2.74697 26.2621 0 22.8952 0C19.5282 0 16.7903 2.74697 16.7903 6.125C16.7903 8.9722 18.7438 11.348 21.3708 12.031V21.7196C19.6022 22.3581 18.3295 24.0397 18.3295 26.0294V44.4044C18.3295 46.9361 20.3829 49 22.91 49C25.437 49 27.4905 46.9398 27.4905 44.4044V26.0294C27.4905 24.0323 26.2066 22.347 24.4269 21.7159H24.4195ZM19.839 6.125C19.839 4.43598 21.208 3.0625 22.8915 3.0625C24.5749 3.0625 25.9439 4.43598 25.9439 6.125C25.9439 7.81402 24.5749 9.1875 22.8915 9.1875C21.208 9.1875 19.839 7.81402 19.839 6.125ZM24.4269 44.4081C24.4269 45.2545 23.7424 45.9375 22.8989 45.9375C22.0553 45.9375 21.3745 45.2508 21.3745 44.4081V26.0331C21.3745 25.1867 22.059 24.5037 22.8989 24.5037C23.7387 24.5037 24.4269 25.1905 24.4269 26.0331V44.4081Z" fill="white"></path>
  </g>
  <defs>
    <clipPath id="clip0_420_4749">
      <rect width="29" height="49" fill="white"></rect>
    </clipPath>
  </defs>
</svg>
