<?xml version="1.0" encoding="UTF-8"?>
<svg xmlns="http://www.w3.org/2000/svg" width="29" height="38" viewBox="0 0 29 38" fill="none">
  <g clip-path="url(#clip0_49_299)">
    <path d="M13.2941 16.627H6.04578V0H13.2941V16.627ZM8.45751 14.2508H10.8758V2.37621H8.45751V14.2508Z" fill="white"></path>
    <path d="M9.66666 21.373C6.33491 21.373 3.62746 18.7062 3.62746 15.439V14.2509H15.7124V15.439C15.7124 18.7127 12.9984 21.373 9.67323 21.373H9.66666ZM6.24948 16.6206C6.74892 18.0024 8.09607 18.9968 9.66666 18.9968C11.2372 18.9968 12.5844 18.0024 13.0838 16.6206H6.24948Z" fill="white"></path>
    <path d="M14.5033 10.6865C12.5056 10.6865 10.8758 9.09159 10.8758 7.12218C10.8758 5.15276 12.499 3.55786 14.5033 3.55786C16.5076 3.55786 18.1308 5.15276 18.1308 7.12218C18.1308 9.09159 16.5076 10.6865 14.5033 10.6865ZM14.5033 5.93407C13.8396 5.93407 13.2941 6.46355 13.2941 7.12218C13.2941 7.7808 13.833 8.31028 14.5033 8.31028C15.1736 8.31028 15.7124 7.7808 15.7124 7.12218C15.7124 6.46355 15.1736 5.93407 14.5033 5.93407Z" fill="white"></path>
    <path d="M17.4342 28.4952H13.189V26.119H17.4342C22.4811 26.119 26.5817 22.0833 26.5817 17.1307C26.5817 12.1781 22.4745 8.14245 17.4342 8.14245V5.76624C23.8085 5.76624 29 10.8673 29 17.1307C29 23.3941 23.8085 28.4952 17.4342 28.4952Z" fill="white"></path>
    <path d="M25.3791 38H0V32.0659H1.20915C3.20689 32.0659 4.83662 30.471 4.83662 28.5016H0V26.1254H14.5033V28.5016C14.5033 30.4645 16.1264 32.0659 18.1307 32.0659H25.3857V38H25.3791ZM2.41831 35.6238H22.9674V34.4356H18.1307C14.799 34.4356 12.0915 31.7753 12.0915 28.5016H7.2615C7.2615 31.3685 5.18491 33.7641 2.42488 34.3194V35.6238H2.41831Z" fill="white"></path>
    <path d="M10.8758 20.1849H8.45752V23.7493H10.8758V20.1849Z" fill="white"></path>
    <path d="M14.5533 17.3606L12.8436 19.0411L16.0643 22.2047L17.774 20.5242L14.5533 17.3606Z" fill="white"></path>
    <path d="M4.78595 17.3699L1.56575 20.5341L3.27575 22.2143L6.49595 19.0502L4.78595 17.3699Z" fill="white"></path>
  </g>
  <defs>
    <clipPath id="clip0_49_299">
      <rect width="29" height="38" fill="white"></rect>
    </clipPath>
  </defs>
</svg>
