<?xml version="1.0" encoding="UTF-8"?>
<svg xmlns="http://www.w3.org/2000/svg" width="34" height="34" viewBox="0 0 34 34" fill="none">
  <g clip-path="url(#clip0_374_3738)">
    <path d="M5.81705 34.0001H0V27.5754L4.90415 21.6278C5.88074 20.6418 7.10147 20.1436 8.38589 20.1436H20.5932V22.2639C20.5932 23.0485 20.3915 23.7694 20.0306 24.3843H22.1218L27.96 21.7232C29.6903 20.7055 31.7815 20.9175 33.4799 22.3275C33.8195 22.6138 34.0106 23.0485 33.9788 23.5043C33.9469 23.9496 33.7028 24.3525 33.3206 24.5857L23.4805 30.6075L5.82766 34.0107L5.81705 34.0001ZM2.12301 31.8798H5.61536L22.6844 28.5826L31.1764 23.3877C30.5713 23.1545 29.7964 23.0909 28.926 23.5891L22.5676 26.494H11.581V24.3737H16.0712C17.2282 24.3737 18.4596 23.7164 18.4596 22.2533H8.37527C7.65345 22.2533 6.97409 22.529 6.46457 23.0485L2.12301 28.3282V31.8798Z" fill="white"></path>
    <path d="M30.3166 12.7222H21.8882V10.6018H30.3166C31.1764 10.6018 31.877 9.90209 31.877 9.04334C31.877 8.44964 31.5479 7.90895 31.0172 7.6439L28.4483 6.36108H4.68125L2.55824 2.12036H2.16549L3.09961 8.66168L11.8252 10.6018H13.6085V12.7222L11.4749 12.701L1.21013 10.4216L0.0318604 2.12036V0H3.87451L5.99752 4.24072H28.9473L31.9619 5.74618C33.2145 6.37169 34 7.6333 34 9.04334C34 11.0789 32.3441 12.7222 30.3166 12.7222Z" fill="white"></path>
    <path d="M16.3578 18.0231H7.28198L14.893 9.14936V8.48145H17.016V9.93389L11.8995 15.9027H15.5617L23.385 9.06455V8.48145H25.508V10.0187L16.3578 18.0231Z" fill="white"></path>
  </g>
  <defs>
    <clipPath id="clip0_374_3738">
      <rect width="34" height="34" fill="white"></rect>
    </clipPath>
  </defs>
</svg>
