<?xml version="1.0" encoding="UTF-8"?>
<svg xmlns="http://www.w3.org/2000/svg" width="41" height="36" viewBox="0 0 41 36" fill="none">
  <g clip-path="url(#clip0_374_3775)">
    <path d="M41 33.9044H36.695V31.3173H38.4375V11.2152L29.9684 2.58714H2.5625V31.3173H24.2925V33.9044H0V0H31.0319L41 10.1545V33.9044Z" fill="white"></path>
    <path d="M39.7187 11.9783H29.1356V1.29346H31.6981V9.39119H39.7187V11.9783Z" fill="white"></path>
    <path d="M30.7885 28.7304C27.9569 28.7304 25.6635 26.4149 25.6635 23.5561C25.6635 20.6973 27.9569 18.3818 30.7885 18.3818C33.62 18.3818 35.9135 20.6973 35.9135 23.5561C35.9135 26.4149 33.62 28.7304 30.7885 28.7304ZM30.7885 20.969C29.3791 20.969 28.226 22.1332 28.226 23.5561C28.226 24.979 29.3791 26.1432 30.7885 26.1432C32.1978 26.1432 33.351 24.979 33.351 23.5561C33.351 22.1332 32.1978 20.969 30.7885 20.969Z" fill="white"></path>
    <path d="M34.6322 36.0001L30.7885 34.0597L26.9447 36.0001V26.1431H29.5072V31.8089L30.7885 31.1621L32.0697 31.8089V26.1431H34.6322V36.0001Z" fill="white"></path>
    <path d="M23.101 5.4458H20.5385V8.03294H23.101V5.4458Z" fill="white"></path>
    <path d="M17.976 5.4458H15.4135V8.03294H17.976V5.4458Z" fill="white"></path>
    <path d="M12.851 5.4458H10.2885V8.03294H12.851V5.4458Z" fill="white"></path>
    <path d="M7.72595 5.4458H5.16345V8.03294H7.72595V5.4458Z" fill="white"></path>
    <path d="M7.72595 10.6201H5.16345V13.2073H7.72595V10.6201Z" fill="white"></path>
    <path d="M7.72595 15.7944H5.16345V18.3816H7.72595V15.7944Z" fill="white"></path>
    <path d="M7.72595 20.9688H5.16345V23.5559H7.72595V20.9688Z" fill="white"></path>
    <path d="M7.72595 26.1431H5.16345V28.7302H7.72595V26.1431Z" fill="white"></path>
    <path d="M12.851 26.1431H10.2885V28.7302H12.851V26.1431Z" fill="white"></path>
    <path d="M17.976 26.1431H15.4135V28.7302H17.976V26.1431Z" fill="white"></path>
    <path d="M23.101 26.1431H20.5385V28.7302H23.101V26.1431Z" fill="white"></path>
    <path d="M24.3822 13.2075H14.1322V15.7947H24.3822V13.2075Z" fill="white"></path>
    <path d="M19.2572 18.3818H14.1322V20.969H19.2572V18.3818Z" fill="white"></path>
  </g>
  <defs>
    <clipPath id="clip0_374_3775">
      <rect width="41" height="36" fill="white"></rect>
    </clipPath>
  </defs>
</svg>
