<?xml version="1.0" encoding="UTF-8"?>
<svg xmlns="http://www.w3.org/2000/svg" width="32" height="32" viewBox="0 0 32 32" fill="none">
  <g clip-path="url(#clip0_49_290)">
    <path d="M8.99735 27.9952C6.79045 27.9952 5.00024 26.205 5.00024 23.9981V0H13.0022V23.9981C13.0022 26.205 11.2042 27.9952 9.00507 27.9952H8.99735ZM6.9988 1.99855V23.9981C6.9988 25.1015 7.8939 25.9966 8.99735 25.9966C10.1008 25.9966 10.9959 25.1015 10.9959 23.9981V1.99855H6.9988Z" fill="white"></path>
    <path d="M13.9976 0H3.99711V1.99855H13.9976V0Z" fill="white"></path>
    <path d="M22.9949 27.9952C20.788 27.9952 18.9978 26.205 18.9978 23.9981V0H26.9998V23.9981C26.9998 26.205 25.2096 27.9952 23.0027 27.9952H22.9949ZM20.9964 1.99855V23.9981C20.9964 25.1015 21.8915 25.9966 22.9949 25.9966C24.0984 25.9966 24.9935 25.1015 24.9935 23.9981V1.99855H20.9964Z" fill="white"></path>
    <path d="M27.9952 0H17.9947V1.99855H27.9952V0Z" fill="white"></path>
    <path d="M28.9983 32H3.00169C1.35037 32 0 30.6574 0 28.9983V10.0005H3.00169V11.999H1.99855V28.9983C1.99855 29.5539 2.44611 30.0015 3.00169 30.0015H28.9983C29.5539 30.0015 30.0014 29.5539 30.0014 28.9983V11.999H28.9983V10.0005H32V28.9983C32 30.6496 30.6573 32 28.9983 32Z" fill="white"></path>
    <path d="M16.9993 10.0005H15.0007V11.999H16.9993V10.0005Z" fill="white"></path>
    <path d="M11.999 15.9961H5.99566V17.9946H11.999V15.9961Z" fill="white"></path>
    <path d="M26.0121 3.99707H20.0087V5.99562H26.0121V3.99707Z" fill="white"></path>
  </g>
  <defs>
    <clipPath id="clip0_49_290">
      <rect width="32" height="32" fill="white"></rect>
    </clipPath>
  </defs>
</svg>
