<?xml version="1.0" encoding="UTF-8"?>
<svg xmlns="http://www.w3.org/2000/svg" width="32" height="37" viewBox="0 0 32 37" fill="none">
  <g clip-path="url(#clip0_49_255)">
    <path d="M13.3087 10.2871H10.9493V10.4417H13.3087V10.2871Z" fill="white"></path>
    <path d="M25.1123 36.7359C18.5401 36.7359 8.26122 33.5216 4.77796 30.887C2.17537 28.9159 0.51918 26.0688 0.0985596 22.8738C-0.315488 19.6788 0.558613 16.516 2.5697 13.9652C5.88209 9.76534 11.7248 8.17429 16.7722 10.1003L15.9113 12.2582C11.8299 10.6994 7.11766 11.9877 4.43621 15.3823C1.08439 19.6337 1.87962 25.766 6.21727 29.0576C10.9887 32.6713 26.6436 35.9436 28.543 33.7213C30.4358 31.776 27.8003 17.6755 24.1396 13.3275C23.7059 12.8122 23.213 12.3419 22.674 11.9426L24.1133 10.1067C24.7903 10.6156 25.4146 11.2082 25.9601 11.8588C29.6077 16.194 33.5773 31.9112 30.2978 35.2737C29.404 36.3172 27.498 36.7424 25.0992 36.7424L25.1123 36.7359Z" fill="white"></path>
    <path d="M12.4806 10.4868H10.1212V5.39798C10.1146 2.42201 12.5857 0 15.6221 0H22.1746C24.304 0 26.039 1.69412 26.039 3.78116V4.95352H23.6796V3.78116C23.6796 2.96953 23.0092 2.3125 22.1811 2.3125H15.6287C13.8936 2.3125 12.4872 3.69098 12.4872 5.39154V10.4803L12.4806 10.4868Z" fill="white"></path>
    <path d="M8.80015 31.2155H6.44073V28.8708C6.44073 24.7998 9.25363 22.8158 11.3699 21.6821C13.6504 20.4518 15.07 18.1071 15.07 15.5562V12.7606C15.07 10.9119 15.6484 9.1276 16.7394 7.6074L18.0472 6.12586L19.2828 5.21761C20.8207 4.27071 22.49 3.80048 24.2054 3.80048H32V10.8732H25.9207C24.2054 10.8732 22.8121 12.2388 22.8121 13.9201V17.1795H20.4526V13.9201C20.4526 10.9634 22.9041 8.56075 25.9207 8.56075H29.6406V6.11942H24.2119C22.9435 6.11942 21.7014 6.46726 20.6235 7.13073L19.572 7.90371L18.6059 9.02454C17.8566 10.0745 17.4294 11.395 17.4294 12.7606V15.5562C17.4294 18.9573 15.5432 22.0815 12.5003 23.7176C9.87142 25.1283 8.80015 26.6292 8.80015 28.8773V31.222V31.2155Z" fill="white"></path>
    <path d="M8.64241 37H1.48529V26.5841H3.84471V34.6875H6.28299V31.2155H8.64241V37Z" fill="white"></path>
    <path d="M3.84471 16.1682H1.48529V2.27386H8.64241V11.5367H6.28299V4.58636H3.84471V16.1682Z" fill="white"></path>
  </g>
  <defs>
    <clipPath id="clip0_49_255">
      <rect width="32" height="37" fill="white"></rect>
    </clipPath>
  </defs>
</svg>
