<?xml version="1.0" encoding="UTF-8"?>
<svg xmlns="http://www.w3.org/2000/svg" width="35" height="35" viewBox="0 0 35 35" fill="none">
  <g clip-path="url(#clip0_375_3705)">
    <path d="M33.3756 30.7655H1.62438C0.728692 30.7655 0 30.0369 0 29.1414V8.27197C0 7.37648 0.728692 6.64795 1.62438 6.64795H5.37411V8.83355H2.18608V28.5723H32.8139V8.84114H29.7473V6.65554H33.3756C34.2713 6.65554 35 7.38407 35 8.27956V29.149C35 30.0445 34.2713 30.7731 33.3756 30.7731V30.7655Z" fill="white"></path>
    <path d="M30.8024 25.2938L28.6164 25.2862L28.6543 2.20078L6.48233 2.1856L6.44438 25.2483L4.2583 25.2407L4.29625 0L30.848 0.0075889L30.8024 25.2938Z" fill="white"></path>
    <path d="M1.09512 24.1557L1.09131 26.3413L33.9052 26.3986L33.909 24.213L1.09512 24.1557Z" fill="white"></path>
    <path d="M14.9156 29.8242H12.7295V33.7629H14.9156V29.8242Z" fill="white"></path>
    <path d="M22.3238 29.8242H20.1377V33.7629H22.3238V29.8242Z" fill="white"></path>
    <path d="M23.842 32.8145H11.1431V35.0001H23.842V32.8145Z" fill="white"></path>
    <path d="M20.9346 21.2488L14.4675 9.37976L12.8203 14.3125H5.47266V12.1194H11.2491L13.9817 3.92334L20.631 16.1187L22.2326 12.1194H29.5347V14.3125H23.7127L20.9346 21.2488Z" fill="white"></path>
  </g>
  <defs>
    <clipPath id="clip0_375_3705">
      <rect width="35" height="35" fill="white"></rect>
    </clipPath>
  </defs>
</svg>
