<?xml version="1.0" encoding="UTF-8"?>
<svg xmlns="http://www.w3.org/2000/svg" width="36" height="36" viewBox="0 0 36 36" fill="none">
  <g clip-path="url(#clip0_49_262)">
    <path d="M34.3292 31.6444H1.67079C0.749512 31.6444 0 30.8951 0 29.974V8.50825C0 7.58718 0.749512 6.83783 1.67079 6.83783H5.52765V9.08588H2.24854V29.3886H33.7515V9.09368H30.5973V6.84564H34.3292C35.2505 6.84564 36 7.59498 36 8.51606V29.9818C36 30.9029 35.2505 31.6522 34.3292 31.6522V31.6444Z" fill="white"></path>
    <path d="M31.6825 26.0165L29.4339 26.0087L29.473 2.26366L6.66752 2.24805L6.62848 25.9696L4.37994 25.9618L4.41898 0L31.7293 0.00780572L31.6825 26.0165Z" fill="white"></path>
    <path d="M1.12642 24.8459L1.1225 27.094L34.8739 27.1529L34.8778 24.9048L1.12642 24.8459Z" fill="white"></path>
    <path d="M15.3416 30.6765H13.093V34.7277H15.3416V30.6765Z" fill="white"></path>
    <path d="M22.9616 30.6765H20.7131V34.7277H22.9616V30.6765Z" fill="white"></path>
    <path d="M24.5231 33.752H11.4613V36H24.5231V33.752Z" fill="white"></path>
    <path d="M21.5329 21.8561L14.8809 9.6479L13.1867 14.7216H5.62915V12.4658H11.5706L14.3813 4.03558L21.2206 16.5794L22.8679 12.4658H30.3787V14.7216H24.3904L21.5329 21.8561Z" fill="white"></path>
  </g>
  <defs>
    <clipPath id="clip0_49_262">
      <rect width="36" height="36" fill="white"></rect>
    </clipPath>
  </defs>
</svg>
