<?xml version="1.0" encoding="UTF-8"?>
<svg xmlns="http://www.w3.org/2000/svg" width="27" height="36" viewBox="0 0 27 36" fill="none">
  <g clip-path="url(#clip0_375_3695)">
    <path d="M12.375 15.75H5.625V0H12.375V15.75ZM7.875 13.5H10.125V2.25H7.875V13.5Z" fill="white"></path>
    <path d="M9 20.25C5.895 20.25 3.375 17.73 3.375 14.625V13.5H14.625V14.625C14.625 17.73 12.105 20.25 9 20.25ZM5.81625 15.75C6.2775 17.055 7.5375 18 9 18C10.4625 18 11.7225 17.055 12.1838 15.75H5.81625Z" fill="white"></path>
    <path d="M13.5 10.125C11.6438 10.125 10.125 8.60625 10.125 6.75C10.125 4.89375 11.6438 3.375 13.5 3.375C15.3562 3.375 16.875 4.89375 16.875 6.75C16.875 8.60625 15.3562 10.125 13.5 10.125ZM13.5 5.625C12.8812 5.625 12.375 6.13125 12.375 6.75C12.375 7.36875 12.8812 7.875 13.5 7.875C14.1188 7.875 14.625 7.36875 14.625 6.75C14.625 6.13125 14.1188 5.625 13.5 5.625Z" fill="white"></path>
    <path d="M16.2337 26.9998H12.2849V24.7498H16.2337C20.9249 24.7498 24.7499 20.9248 24.7499 16.2335C24.7499 11.5423 20.9249 7.71729 16.2337 7.71729V5.46729C22.1737 5.46729 26.9999 10.2935 26.9999 16.2335C26.9999 22.1735 22.1737 26.9998 16.2337 26.9998Z" fill="white"></path>
    <path d="M23.625 36H0V30.375H1.125C2.98125 30.375 4.5 28.8562 4.5 27H0V24.75H13.5V27C13.5 28.8562 15.0188 30.375 16.875 30.375H23.625V36ZM2.25 33.75H21.375V32.625H16.875C13.77 32.625 11.25 30.105 11.25 27H6.75C6.75 29.7113 4.815 31.9837 2.25 32.5125V33.75Z" fill="white"></path>
    <path d="M10.125 19.125H7.875V22.5H10.125V19.125Z" fill="white"></path>
    <path d="M13.5534 16.4493L11.9626 18.0405L14.9622 21.039L16.5529 19.4478L13.5534 16.4493Z" fill="white"></path>
    <path d="M4.45654 16.458L1.45752 19.457L3.04851 21.048L6.04753 18.049L4.45654 16.458Z" fill="white"></path>
  </g>
  <defs>
    <clipPath id="clip0_375_3695">
      <rect width="27" height="36" fill="white"></rect>
    </clipPath>
  </defs>
</svg>
