<?xml version="1.0" encoding="UTF-8"?>
<svg xmlns="http://www.w3.org/2000/svg" width="42" height="40" viewBox="0 0 42 40" fill="none">
  <g clip-path="url(#clip0_49_275)">
    <path d="M3.54611 39.9924C3.12526 39.9924 2.72778 39.9621 2.3381 39.9013L0 39.5218L21.9469 15.4763L37.5342 0L39.4047 1.78368L23.8564 17.2144L5.61922 37.1992C12.049 35.704 21.7287 27.9013 26.062 23.6888L25.8671 17.4725L28.2442 19.9621C28.2442 19.9621 28.9145 20.6072 29.8965 20.6148H29.9042C30.7538 20.6148 31.6578 20.1518 32.6009 19.2334L39.7243 12.296L41.5713 14.0949L34.4479 21.0323C32.9749 22.4668 31.4006 23.1651 29.8107 23.1575C29.3977 23.1575 29.008 23.0892 28.6651 23.0057L28.7196 24.7059L27.9402 25.4649C23.6226 29.6698 11.2852 39.9848 3.55391 39.9848L3.54611 39.9924Z" fill="white"></path>
    <path d="M26.3036 37.4497H3.53052V40H26.3036V37.4497Z" fill="white"></path>
    <path d="M42 40H39.3813V37.4497H42V40ZM36.7705 40H34.1518V37.4497H36.7705V40ZM31.5409 40H28.9223V37.4497H31.5409V40Z" fill="white"></path>
    <path d="M23.8771 15.4521L21.9688 17.1985L26.3186 21.7064L28.2269 19.96L23.8771 15.4521Z" fill="white"></path>
  </g>
  <defs>
    <clipPath id="clip0_49_275">
      <rect width="42" height="40" fill="white"></rect>
    </clipPath>
  </defs>
</svg>
