<?xml version="1.0" encoding="UTF-8"?>
<svg xmlns="http://www.w3.org/2000/svg" width="35" height="35" viewBox="0 0 35 35" fill="none">
  <g clip-path="url(#clip0_375_3431)">
    <path d="M35 35H0V6.5625H35V35ZM2.1875 32.8125H32.8125V8.75H2.1875V32.8125Z" fill="white"></path>
    <path d="M20.8248 30.6251H14.2514V24.1063H7.72168V17.5329H14.2404V11.0142H20.8139V17.5329H27.3326V24.1063H20.8139V30.6251H20.8248ZM16.4389 28.4376H18.6373V21.9188H25.1561V19.7204H18.6373V13.2017H16.4389V19.7204H9.92012V21.9188H16.4389V28.4376Z" fill="white"></path>
    <path d="M25.1562 8.75H9.84375V3.28125C9.84375 1.47656 11.3203 0 13.125 0H21.875C23.6797 0 25.1562 1.47656 25.1562 3.28125V8.75ZM12.0312 6.5625H22.9688V3.28125C22.9688 2.67969 22.4766 2.1875 21.875 2.1875H13.125C12.5234 2.1875 12.0312 2.67969 12.0312 3.28125V6.5625Z" fill="white"></path>
  </g>
  <defs>
    <clipPath id="clip0_375_3431">
      <rect width="35" height="35" fill="white"></rect>
    </clipPath>
  </defs>
</svg>
