<?xml version="1.0" encoding="UTF-8"?>
<svg xmlns="http://www.w3.org/2000/svg" width="41" height="41" viewBox="0 0 41 41" fill="none">
  <path d="M10.4186 28.2403C5.05124 28.2403 0.680908 23.87 0.680908 18.5026V6.44685C0.680908 3.26465 3.26489 0.680664 6.44709 0.680664L6.53018 3.14002H6.44709C4.6275 3.14002 3.14026 4.62726 3.14026 6.44685V18.5026C3.14026 22.5157 6.40554 25.7727 10.4103 25.7727C14.4151 25.7727 17.6803 22.5074 17.6803 18.5026V6.44685C17.6803 4.62726 16.1931 3.14002 14.3735 3.14002H14.1824V0.680664H14.3735C17.5557 0.680664 20.1397 3.26465 20.1397 6.44685V18.5026C20.1397 23.87 15.7694 28.2403 10.402 28.2403H10.4186Z" fill="white"></path>
  <path d="M30.4008 40.0634H29.894C28.5563 40.0634 27.3017 39.5151 26.3628 38.5346C25.4405 37.5625 24.9337 36.283 24.9337 34.9204L24.9503 32.8931C24.9503 31.4225 23.8287 30.2177 22.4494 30.2177C21.0702 30.2177 19.9485 31.4141 19.9402 32.8931L19.9236 34.9204C19.9236 36.2747 19.4085 37.5625 18.4862 38.5263C17.5473 39.5067 16.2927 40.0468 14.9551 40.0468H14.2654C11.5236 40.0468 9.29689 37.7287 9.3052 34.8955V26.9857H11.7729V34.8955C11.7645 36.3744 12.8862 37.5708 14.2654 37.5791H14.9467C15.6031 37.5791 16.2263 37.305 16.6999 36.8148C17.1901 36.3079 17.456 35.6266 17.456 34.9038L17.4726 32.8765C17.4726 30.0515 19.7076 27.75 22.4411 27.75C25.183 27.75 27.4097 30.0598 27.4014 32.8931L27.3847 34.9204C27.3847 35.6432 27.6506 36.3245 28.1325 36.8314C28.6061 37.3216 29.2293 37.5958 29.8856 37.5958H30.3842C31.7135 37.5958 32.6773 36.4741 32.6773 34.9204L32.7023 15.7939H35.1616L35.1367 34.9287C35.1367 37.8035 33.0429 40.0634 30.3759 40.0634H30.4008Z" fill="white"></path>
  <path d="M33.9238 17.9125C30.5339 17.9125 27.7671 15.154 27.7671 11.7558C27.7671 8.35758 30.5255 5.59912 33.9238 5.59912C37.322 5.59912 40.0805 8.35758 40.0805 11.7558C40.0805 15.154 37.322 17.9125 33.9238 17.9125ZM33.9238 8.06678C31.8882 8.06678 30.2347 9.7202 30.2347 11.7558C30.2347 13.7914 31.8882 15.4448 33.9238 15.4448C35.9594 15.4448 37.6128 13.7914 37.6128 11.7558C37.6128 9.7202 35.9594 8.06678 33.9238 8.06678Z" fill="white"></path>
</svg>
